<?xml version="1.0" encoding="UTF-8" standalone="no"?>
<!DOCTYPE svg PUBLIC "-//W3C//DTD SVG 1.1//EN"
 "http://www.w3.org/Graphics/SVG/1.1/DTD/svg11.dtd">
<!-- Generated by graphviz version 2.36.0 (20140111.2315)
 -->
<!-- Title: G Pages: 1 -->
<svg width="238pt" height="419pt"
 viewBox="0.00 0.00 238.00 419.00" xmlns="http://www.w3.org/2000/svg" xmlns:xlink="http://www.w3.org/1999/xlink">
<g id="graph0" class="graph" transform="scale(1 1) rotate(0) translate(4 415)">
<title>G</title>
<polygon fill="white" stroke="none" points="-4,4 -4,-415 234,-415 234,4 -4,4"/>
<g id="clust1" class="cluster"><title>cluster_Global</title>
<path fill="none" stroke="gray" d="M20,-8C20,-8 210,-8 210,-8 216,-8 222,-14 222,-20 222,-20 222,-391 222,-391 222,-397 216,-403 210,-403 210,-403 20,-403 20,-403 14,-403 8,-397 8,-391 8,-391 8,-20 8,-20 8,-14 14,-8 20,-8"/>
<text text-anchor="middle" x="115" y="-390.2" font-family="Times,serif" font-size="11.00" fill="gray">Global</text>
</g>
<!-- \\KYApi -->
<g id="node1" class="node"><title>\\KYApi</title>
<polygon fill="none" stroke="black" points="206,-376 152,-376 152,-340 206,-340 206,-376"/>
<text text-anchor="middle" x="179" y="-354.7" font-family="Courier,monospace" font-size="11.00">KYApi</text>
</g>
<!-- \\KYDB -->
<g id="node2" class="node"><title>\\KYDB</title>
<polygon fill="none" stroke="black" points="206,-322 152,-322 152,-286 206,-286 206,-322"/>
<text text-anchor="middle" x="179" y="-300.7" font-family="Courier,monospace" font-size="11.00">KYDB</text>
</g>
<!-- \\KYFile -->
<g id="node3" class="node"><title>\\KYFile</title>
<polygon fill="none" stroke="black" points="206.608,-268 151.392,-268 151.392,-232 206.608,-232 206.608,-268"/>
<text text-anchor="middle" x="179" y="-246.7" font-family="Courier,monospace" font-size="11.00">KYFile</text>
</g>
<!-- \\KYHtml -->
<g id="node4" class="node"><title>\\KYHtml</title>
<polygon fill="none" stroke="black" points="71.6078,-160 16.3922,-160 16.3922,-124 71.6078,-124 71.6078,-160"/>
<text text-anchor="middle" x="44" y="-138.7" font-family="Courier,monospace" font-size="11.00">KYHtml</text>
</g>
<!-- \\KYMail -->
<g id="node5" class="node"><title>\\KYMail</title>
<polygon fill="none" stroke="black" points="206.608,-214 151.392,-214 151.392,-178 206.608,-178 206.608,-214"/>
<text text-anchor="middle" x="179" y="-192.7" font-family="Courier,monospace" font-size="11.00">KYMail</text>
</g>
<!-- \\KYPage -->
<g id="node6" class="node"><title>\\KYPage</title>
<polygon fill="none" stroke="black" points="206.608,-160 151.392,-160 151.392,-124 206.608,-124 206.608,-160"/>
<text text-anchor="middle" x="179" y="-138.7" font-family="Courier,monospace" font-size="11.00">KYPage</text>
</g>
<!-- \\KYPage&#45;&gt;\\KYHtml -->
<g id="edge1" class="edge"><title>\\KYPage&#45;&gt;\\KYHtml</title>
<path fill="none" stroke="black" d="M151.085,-142C131.255,-142 104.042,-142 82.1425,-142"/>
<polygon fill="none" stroke="black" points="81.8745,-138.5 71.8745,-142 81.8745,-145.5 81.8745,-138.5"/>
</g>
<!-- \\KYSample -->
<g id="node7" class="node"><title>\\KYSample</title>
<polygon fill="none" stroke="black" points="213.309,-106 144.691,-106 144.691,-70 213.309,-70 213.309,-106"/>
<text text-anchor="middle" x="179" y="-84.7" font-family="Courier,monospace" font-size="11.00">KYSample</text>
</g>
<!-- \\KYWeb -->
<g id="node8" class="node"><title>\\KYWeb</title>
<polygon fill="none" stroke="black" points="206,-52 152,-52 152,-16 206,-16 206,-52"/>
<text text-anchor="middle" x="179" y="-30.7" font-family="Courier,monospace" font-size="11.00">KYWeb</text>
</g>
</g>
</svg>
